<svg xmlns="http://www.w3.org/2000/svg" xmlns:xlink="http://www.w3.org/1999/xlink" width="500" zoomAndPan="magnify" viewBox="0 0 375 374.999991" height="500" preserveAspectRatio="xMidYMid meet" version="1.0"><defs><clipPath id="aad75b78bd"><path d="M 38 16 L 337.5 16 L 337.5 359.933594 L 38 359.933594 Z M 38 16 " clip-rule="nonzero"/></clipPath><clipPath id="066dc520df"><path d="M 1 1 L 299.441406 1 L 299.441406 343 L 1 343 Z M 1 1 " clip-rule="nonzero"/></clipPath><clipPath id="0fea41f94d"><rect x="0" width="300" y="0" height="344"/></clipPath></defs><g clip-path="url(#aad75b78bd)"><g transform="matrix(1, 0, 0, 1, 38, 16)"><g clip-path="url(#0fea41f94d)"><g clip-path="url(#066dc520df)"><path fill="#f39a28" d="M 1.074219 245.410156 C 1.167969 259.546875 8.496094 262.691406 8.496094 262.691406 C 8.496094 262.691406 135.160156 335.882812 143.386719 340.460938 C 151.554688 343.96875 157.011719 340.460938 157.011719 340.460938 C 157.011719 340.460938 289.535156 263.601562 294.371094 260.222656 C 299.210938 256.84375 299.324219 251.585938 299.324219 251.585938 C 299.324219 251.585938 299.191406 99.390625 299.324219 92.339844 C 299.457031 85.289062 290.660156 79.992188 290.660156 79.992188 L 158.25 3.457031 C 150.09375 -0.847656 142.160156 3.457031 142.160156 3.457031 C 142.160156 3.457031 25.1875 71.449219 12.21875 78.757812 C -0.484375 84.800781 1.078125 97.273438 1.078125 97.273438 C 1.078125 97.273438 1.007812 232.285156 1.078125 245.417969 Z M 53.941406 92.65625 C 81.058594 77.050781 144.925781 40.042969 144.925781 40.042969 C 144.925781 40.042969 151.160156 36.671875 157.558594 40.042969 L 261.523438 99.941406 C 261.523438 99.941406 268.429688 104.085938 268.328125 109.601562 C 268.222656 115.117188 268.328125 234.226562 268.328125 234.226562 C 268.328125 234.226562 268.238281 238.339844 264.4375 240.988281 C 260.640625 243.632812 156.589844 303.785156 156.589844 303.785156 C 156.589844 303.785156 152.300781 306.523438 145.90625 303.785156 C 139.4375 300.195312 39.992188 242.921875 39.992188 242.921875 C 39.992188 242.921875 34.226562 240.449219 34.167969 229.390625 C 34.144531 226.210938 34.144531 213.824219 34.132812 198.28125 L 151.21875 269.222656 L 151.21875 242.082031 C 151.21875 230.929688 142.582031 223.578125 142.582031 223.578125 L 39.027344 161.175781 C 35.121094 157.085938 34.320312 150.550781 34.144531 148.078125 C 34.15625 136.742188 34.15625 126.847656 34.15625 120.566406 L 151.21875 191.496094 L 151.21875 163.125 C 151.21875 151.984375 143.820312 147.089844 143.820312 147.089844 L 53.941406 92.652344 Z M 53.941406 92.65625 " fill-opacity="1" fill-rule="nonzero"/></g></g></g></g></svg>